<svg xmlns="http://www.w3.org/2000/svg" viewBox="0 0 168 168" width="168" height="168">
  <circle cx="84" cy="84" r="84" fill="#5b21b6"/>
  <path fill="#FFFFFF" d="M124.5 117.5c-2.4 3.6-7.2 5.6-11.4 3.6-31.4-13-71.1-15.7-101.8-8.2-4.2 1.2-8.8-1.6-10.1-6.2-1.4-4.6 1.4-9.2 5.7-10.6 34.2-8.1 77.3-5.1 111.1 9.8 4.3 1.7 6.7 6.4 5.5 11.6zm8.9-22.8c-2.5 4.4-8.1 6.7-13 4.7-36.2-15.1-91.5-16.8-126.7-8.8-5.1 1.3-10.5-2.4-11.9-7.8-1.5-5.4 2.3-10.9 7.5-12.1 38.8-9.4 97.3-7.2 137.3 10.1 5.2 2.2 7.5 8.6 5.5 13.9zm10-22.8c-2.7 5.2-9.2 8-15 5.6-41-16.6-111.8-18.3-155-9.6-5.9 1.2-11.9-2.8-13.4-8.6-1.5-5.8 2.7-11.6 8.7-13.2 46.6-9.1 121.3-7 168.6 11.4 6.4 2.5 8.5 10 5.3 15.4z"/>
</svg>
